<?xml version="1.0" encoding="UTF-8"?>
<svg id="Layer_1" data-name="Layer 1" xmlns="http://www.w3.org/2000/svg" version="1.1" viewBox="0 0 512 512">
  <defs>
    <style>
      .cls-1 {
        fill: #ff3f45;
        stroke-width: 0px;
      }
    </style>
  </defs>
  <path class="cls-1" d="M158.98,399.65c-67.53-70.76-67.16-183.66.8-254.01,21.34-22.09,46.83-37.61,74.01-46.62.26,1.68.8,3.32,1.87,4.86,1.98,2.84,4.69,4.53,7.98,4.79,5.66.45,11.37.44,16.94,1.68,9.81,2.19,19.37,5.05,27.68,11.03.43.31.75.76,1.13,1.14.16.14.32.28.48.42,2.23,1.46,3.95,3.39,5.29,5.67v.02c1.01.74,1.69,1.78,2.3,2.82,2.82,4.83,7.05,7.16,12.57,7.23,3.53.04,7.06.05,10.58.05,9.02,0,18.05,0,27.07-.06,1.42,0,2.13.31,2.49,1.85.74,3.2,3.32,5.12,6.62,5.31.14,0,.27.01.41.01,5.13.15,5.61-.3,5.61-5.35,0-8.55.05-17.1-.04-25.65-.02-1.66.4-2.16,2.12-2.15,12.48.05,24.97-.14,37.45,0,6.47.07,10.75-7.17,8.08-12.41-1.88-3.68-5-5.15-8.95-5.16-12.07-.02-24.14-.05-36.21.03-1.99.01-2.51-.6-2.5-2.54.09-9.83.09-19.67,0-29.5-.01-1.81.51-2.26,2.29-2.25,12.08.07,24.16.02,36.23.02,3.03,0,5.76-.65,7.87-3.06,2.34-2.67,2.73-5.72,1.59-8.91-1.04-2.93-3.22-4.81-6.34-5.39-.93-.17-1.89-.19-2.84-.19-12.21-.02-24.43-.05-36.64.02-1.69,0-2.17-.46-2.15-2.15.08-9.09.04-18.18.04-27.28,0-2.99-.83-3.8-3.88-3.82-5.61-.04-7.23,1.03-8.98,6.23-.36,1.07-.98,1.1-1.82,1.09-4.48-.01-8.95-.02-13.43,0-8.47.03-16.95.04-25.42.13-4.45.05-8.16,1.58-10.73,5.49-3.6,5.48-7.78,10.43-13.56,13.8-5.24,3.06-10.85,5.25-16.67,6.87-7.8,2.18-15.72,3.51-23.86,3.57-5.93.04-10.47,4.81-10.79,10.97v3.79c-35.41,9.71-68.86,28.41-96.68,56.23-86.22,86.22-85.48,226.47,2.23,311.76,42.3,41.14,97.44,61.61,152.55,61.59v-35.14c-48.3,0-96.61-18.92-132.79-56.84Z"/>
  <path class="cls-1" d="M454.77,279.7c21.92,56.3-38.07,78.53-62.46,45.81-11.46-15.37-8.93-33.51-7.8-44.66.81-7.99,2.34-14.22,5.54-21.31,10.4-23.06,46.45-26.75,64.72,20.17Z"/>
  <path class="cls-1" d="M349.52,402.94c-47.18,2.68-70.59-35.57-57.41-59.57,9.45-17.21,53.29-29.82,29.33-78.16-18.79-37.9-17.78-56.86,2.65-72.75,13.22-10.28,36.5-11.72,50.09,7.69,13.59,19.41-2.12,40.33-8.17,72.36-6.04,32.02,5.16,56.63,21.1,88.22,10.42,20.65-1.1,40.14-37.59,42.22Z"/>
  <path class="cls-1" d="M193.27,230.6c6.8,11.12,16.43,50.31,5.76,76.95-14.02,35.02-61.41-8.34-64.04-14.89-2.64-6.55,4.29-9.34,4.29-9.34-7.66-9-.7-16.25,4.83-23.65,9.79-13.1,31.05-30.67,39.67-33.79,3.39-1.23,7.6,1.64,9.49,4.72Z"/>
  <path class="cls-1" d="M213.41,318.64c.4-1.01.83-2.02,1.29-3.04.95-2.92-.32-.11.95-2.92,5.33-11.76,9.13-25.29,9.97-39.64-.05-30.08-7.84-36.26-12.56-50.49-2.1-6.34-1.92-14.25,2.2-21.67,0-.02,0-.03.01-.04,4.74-10.22,22.74-29.68,46.62-33.36,24.95-3.84,29.02,7.32,29.02,7.32h0c4.44,8.15-2.58,21.61-6.22,30.78-2.48,6.26-5.13,12.48-7.01,18.77-3.15,10.56-3.49,21.55,7.02,33.98h-.02s.05.05.06.06l3.66,3.86c.17.15.33.32.5.47,4.54,4.86,11.46,12.72,14.05,18.12.65,1.37,1.11,2.67,1.49,3.95.91,3.65,1.76,12.78-4.18,19.88-8.82,10.53-21.69,18.69-27.85,24.92-11.02,11.14-11.56,18.63-6.79,30.53.03.08.06.16.09.24.07.16.11.32.18.48,0,.02.02.03.02.05.48,1.26-.72-1.76-.21-.53,7.2,16,16.66,34.76-1.95,35.6-9.73.44-20.46-5.01-29.37-11.21-21.21-14.75-30.5-42.09-20.99-66.11Z"/>
</svg>