<?xml version="1.0" encoding="UTF-8"?>
<svg id="Layer_1" data-name="Layer 1" xmlns="http://www.w3.org/2000/svg" version="1.1" viewBox="0 0 474.36 127.42">
  <defs>
    <style>
      .cls-1 {
        fill: #ff3f45;
      }

      .cls-1, .cls-2 {
        stroke-width: 0px;
      }

      .cls-2 {
        fill: #606060;
      }
    </style>
  </defs>
  <path class="cls-1" d="M99.83,72.4c5.28,13.56-9.17,18.92-15.05,11.04-2.76-3.7-2.15-8.07-1.88-10.76.2-1.93.56-3.43,1.33-5.14,2.51-5.56,11.19-6.44,15.6,4.86Z"/>
  <path class="cls-1" d="M74.47,102.09c-11.37.65-17.01-8.57-13.83-14.35,2.28-4.15,12.84-7.19,7.07-18.83-4.53-9.13-4.28-13.7.64-17.53,3.19-2.48,8.79-2.82,12.07,1.85,3.27,4.68-.51,9.72-1.97,17.43-1.46,7.72,1.24,13.65,5.08,21.26,2.51,4.98-.26,9.67-9.06,10.17Z"/>
  <path class="cls-1" d="M36.83,60.57c1.64,2.68,3.96,12.12,1.39,18.54-3.38,8.44-14.8-2.01-15.43-3.59-.64-1.58,1.03-2.25,1.03-2.25-1.85-2.17-.17-3.91,1.16-5.7,2.36-3.16,7.48-7.39,9.56-8.14.82-.3,1.83.4,2.29,1.14Z"/>
  <path class="cls-1" d="M41.68,81.78c.1-.24.2-.49.31-.73.23-.7-.08-.03.23-.7,1.28-2.83,2.2-6.09,2.4-9.55-.01-7.25-1.89-8.74-3.03-12.17-.51-1.53-.46-3.43.53-5.22,0,0,0,0,0-.01,1.14-2.46,5.48-7.15,11.23-8.04,6.01-.92,6.99,1.76,6.99,1.76h0c1.07,1.96-.62,5.21-1.5,7.42-.6,1.51-1.24,3.01-1.69,4.52-.76,2.54-.84,5.19,1.69,8.19h0s.01.01.01.02l.88.93s.08.08.12.11c1.09,1.17,2.76,3.07,3.39,4.37.16.33.27.64.36.95.22.88.43,3.08-1.01,4.79-2.12,2.54-5.23,4.5-6.71,6-2.66,2.69-2.79,4.49-1.64,7.36,0,.02.01.04.02.06.02.04.03.08.04.12,0,0,0,0,0,.01.12.3-.17-.42-.05-.13,1.74,3.86,4.01,8.37-.47,8.58-2.34.11-4.93-1.21-7.08-2.7-5.11-3.55-7.35-10.14-5.06-15.93Z"/>
  <path class="cls-1" d="M22.78,103.08c-17.87-18.73-17.77-48.6.21-67.21,5.65-5.85,12.39-9.95,19.58-12.34.07.45.21.88.5,1.29.52.75,1.24,1.2,2.11,1.27,1.5.12,3.01.12,4.48.45,2.6.58,5.13,1.34,7.32,2.92.11.08.2.2.3.3.04.04.09.07.13.11.59.39,1.04.9,1.4,1.5h0c.27.2.44.47.61.75.75,1.28,1.86,1.9,3.33,1.91.93.01,1.87.01,2.8.01,2.39,0,4.78,0,7.16-.01.38,0,.56.08.66.49.2.85.88,1.36,1.75,1.4.04,0,.07,0,.11,0,1.36.04,1.48-.08,1.48-1.42,0-2.26.01-4.52,0-6.79,0-.44.11-.57.56-.57,3.3.01,6.61-.04,9.91,0,1.71.02,2.85-1.9,2.14-3.28-.5-.97-1.32-1.36-2.37-1.37-3.19,0-6.39-.01-9.58,0-.53,0-.67-.16-.66-.67.02-2.6.02-5.21,0-7.81,0-.48.13-.6.61-.6,3.2.02,6.39,0,9.59,0,.8,0,1.52-.17,2.08-.81.62-.71.72-1.51.42-2.36-.28-.78-.85-1.27-1.68-1.43-.25-.05-.5-.05-.75-.05-3.23,0-6.46-.01-9.7,0-.45,0-.57-.12-.57-.57.02-2.41.01-4.81.01-7.22,0-.79-.22-1.01-1.03-1.01-1.48-.01-1.91.27-2.38,1.65-.1.28-.26.29-.48.29-1.18,0-2.37,0-3.55,0-2.24,0-4.49,0-6.73.03-1.18.01-2.16.42-2.84,1.45-.95,1.45-2.06,2.76-3.59,3.65-1.39.81-2.87,1.39-4.41,1.82-2.06.58-4.16.93-6.31.94-1.57.01-2.77,1.27-2.86,2.9v1c-9.37,2.57-18.22,7.52-25.58,14.88-22.81,22.81-22.62,59.93.59,82.5,11.19,10.89,25.78,16.3,40.37,16.3v-9.3c-12.78,0-25.56-5.01-35.14-15.04Z"/>
  <g>
    <path class="cls-2" d="M148.04,50.46v12.98c-1.17-.09-2.07-.18-3.16-.18-7.75,0-12.89,4.24-12.89,13.52v22.89h-14.06v-48.49h13.43v6.4c3.42-4.69,9.19-7.12,16.67-7.12Z"/>
    <path class="cls-2" d="M203.2,79.4h-36.68c1.35,6.04,6.49,9.73,13.88,9.73,5.14,0,8.83-1.53,12.17-4.69l7.48,8.11c-4.51,5.14-11.27,7.84-20.01,7.84-16.77,0-27.67-10.54-27.67-24.97s11.09-24.97,25.87-24.97,25.24,9.55,25.24,25.15c0,1.08-.18,2.61-.27,3.79ZM166.34,71.19h23.88c-.99-6.13-5.59-10.09-11.9-10.09s-11,3.88-11.99,10.09Z"/>
    <path class="cls-2" d="M260.08,79.4h-36.68c1.35,6.04,6.49,9.73,13.88,9.73,5.14,0,8.83-1.53,12.17-4.69l7.48,8.11c-4.51,5.14-11.27,7.84-20.01,7.84-16.77,0-27.67-10.54-27.67-24.97s11.09-24.97,25.87-24.97,25.24,9.55,25.24,25.15c0,1.08-.18,2.61-.27,3.79ZM223.21,71.19h23.89c-.99-6.13-5.59-10.09-11.9-10.09s-11,3.88-11.99,10.09Z"/>
  </g>
  <path class="cls-2" d="M285.14,52.27h12.44v10.82h-12.08v36.59h-14.06v-36.59h-7.48v-10.82h7.48v-2.16c0-10.91,6.67-18.03,18.75-18.03,3.96,0,8.11.81,10.72,2.61l-3.7,10.19c-1.53-1.08-3.52-1.71-5.68-1.71-4.15,0-6.4,2.25-6.4,7.03v2.07Z"/>
  <g>
    <path class="cls-2" d="M349.05,52.63l-21.27,47.05h-4.6l-21.18-47.05h4.78l18.75,42.09,18.93-42.09h4.6Z"/>
    <path class="cls-2" d="M352.38,76.15c0-13.97,10.01-23.89,23.53-23.89s23.53,9.91,23.53,23.89-10.01,23.88-23.53,23.88-23.53-9.91-23.53-23.88ZM394.84,76.15c0-11.81-8.11-19.83-18.93-19.83s-18.93,8.02-18.93,19.83,8.11,19.83,18.93,19.83,18.93-8.02,18.93-19.83Z"/>
    <path class="cls-2" d="M413.41,32.8h4.51v66.88h-4.51V32.8Z"/>
    <path class="cls-2" d="M459.74,96.7c-2.34,2.25-6.13,3.33-9.64,3.33-8.29,0-12.8-4.87-12.8-12.8v-30.74h-8.65v-3.88h8.65v-10.28h4.51v10.28h14.96v3.88h-14.96v30.29c0,6.04,2.97,9.37,8.74,9.37,2.79,0,5.41-.9,7.3-2.61l1.89,3.15Z"/>
  </g>
  <rect class="cls-1" x="57.92" y="118.12" width="416.44" height="9.3"/>
</svg>